<svg width="225" height="24" viewBox="0 0 225 24" fill="none" xmlns="http://www.w3.org/2000/svg">
<path d="M11.632 11.512C12.4427 11.64 13.1787 11.9707 13.84 12.504C14.5227 13.0373 15.056 13.6987 15.44 14.488C15.8453 15.2773 16.048 16.12 16.048 17.016C16.048 18.1467 15.76 19.1707 15.184 20.088C14.608 20.984 13.7653 21.6987 12.656 22.232C11.568 22.744 10.2773 23 8.784 23H0.464V0.695999H8.464C9.97867 0.695999 11.2693 0.951999 12.336 1.464C13.4027 1.95467 14.2027 2.62667 14.736 3.48C15.2693 4.33333 15.536 5.29333 15.536 6.36C15.536 7.68267 15.1733 8.78133 14.448 9.656C13.744 10.5093 12.8053 11.128 11.632 11.512ZM3.376 10.328H8.272C9.63733 10.328 10.6933 10.008 11.44 9.368C12.1867 8.728 12.56 7.84267 12.56 6.712C12.56 5.58133 12.1867 4.696 11.44 4.056C10.6933 3.416 9.616 3.096 8.208 3.096H3.376V10.328ZM8.528 20.6C9.97867 20.6 11.1093 20.2587 11.92 19.576C12.7307 18.8933 13.136 17.944 13.136 16.728C13.136 15.4907 12.7093 14.52 11.856 13.816C11.0027 13.0907 9.86133 12.728 8.432 12.728H3.376V20.6H8.528ZM22.937 0.695999V14.808C22.937 16.792 23.417 18.264 24.377 19.224C25.3583 20.184 26.713 20.664 28.441 20.664C30.1477 20.664 31.481 20.184 32.441 19.224C33.4223 18.264 33.913 16.792 33.913 14.808V0.695999H36.825V14.776C36.825 16.632 36.4517 18.2 35.705 19.48C34.9583 20.7387 33.945 21.6773 32.665 22.296C31.4063 22.9147 29.9877 23.224 28.409 23.224C26.8303 23.224 25.401 22.9147 24.121 22.296C22.8623 21.6773 21.8597 20.7387 21.113 19.48C20.3877 18.2 20.025 16.632 20.025 14.776V0.695999H22.937ZM57.2987 0.695999L50.0348 14.584V23H47.1228V14.584L39.8268 0.695999H43.0588L48.5628 11.992L54.0668 0.695999H57.2987ZM82.6295 0.695999V3.064H76.5495V23H73.6375V3.064H67.5255V0.695999H82.6295ZM89.062 0.695999V14.808C89.062 16.792 89.542 18.264 90.502 19.224C91.4833 20.184 92.838 20.664 94.566 20.664C96.2727 20.664 97.606 20.184 98.566 19.224C99.5473 18.264 100.038 16.792 100.038 14.808V0.695999H102.95V14.776C102.95 16.632 102.577 18.2 101.83 19.48C101.083 20.7387 100.07 21.6773 98.79 22.296C97.5313 22.9147 96.1127 23.224 94.534 23.224C92.9553 23.224 91.526 22.9147 90.246 22.296C88.9873 21.6773 87.9847 20.7387 87.238 19.48C86.5127 18.2 86.15 16.632 86.15 14.776V0.695999H89.062ZM122.72 7.224C122.72 9.08 122.08 10.6267 120.8 11.864C119.541 13.08 117.61 13.688 115.008 13.688H110.72V23H107.808V0.695999H115.008C117.525 0.695999 119.434 1.304 120.736 2.52C122.058 3.736 122.72 5.304 122.72 7.224ZM115.008 11.288C116.629 11.288 117.824 10.936 118.592 10.232C119.36 9.528 119.744 8.52533 119.744 7.224C119.744 4.472 118.165 3.096 115.008 3.096H110.72V11.288H115.008ZM129.251 20.632H137.059V23H126.339V0.695999H129.251V20.632ZM166.219 23H163.307L151.595 5.24V23H148.683V0.664H151.595L163.307 18.392V0.664H166.219V23ZM181.295 23.224C179.225 23.224 177.337 22.744 175.631 21.784C173.924 20.8027 172.569 19.448 171.567 17.72C170.585 15.9707 170.095 14.008 170.095 11.832C170.095 9.656 170.585 7.704 171.567 5.976C172.569 4.22667 173.924 2.872 175.631 1.912C177.337 0.930665 179.225 0.439999 181.295 0.439999C183.385 0.439999 185.284 0.930665 186.991 1.912C188.697 2.872 190.041 4.216 191.023 5.944C192.004 7.672 192.495 9.63467 192.495 11.832C192.495 14.0293 192.004 15.992 191.023 17.72C190.041 19.448 188.697 20.8027 186.991 21.784C185.284 22.744 183.385 23.224 181.295 23.224ZM181.295 20.696C182.852 20.696 184.249 20.3333 185.487 19.608C186.745 18.8827 187.727 17.848 188.431 16.504C189.156 15.16 189.519 13.6027 189.519 11.832C189.519 10.04 189.156 8.48267 188.431 7.16C187.727 5.816 186.756 4.78133 185.519 4.056C184.281 3.33067 182.873 2.968 181.295 2.968C179.716 2.968 178.308 3.33067 177.071 4.056C175.833 4.78133 174.852 5.816 174.127 7.16C173.423 8.48267 173.071 10.04 173.071 11.832C173.071 13.6027 173.423 15.16 174.127 16.504C174.852 17.848 175.833 18.8827 177.071 19.608C178.329 20.3333 179.737 20.696 181.295 20.696ZM224.371 0.695999L217.907 23H214.643L209.459 5.048L204.083 23L200.851 23.032L194.611 0.695999H197.715L202.579 19.608L207.955 0.695999H211.219L216.339 19.544L221.235 0.695999H224.371Z" fill="url(#paint0_linear_141_274)"/>
<defs>
<linearGradient id="paint0_linear_141_274" x1="-2" y1="12" x2="226" y2="12" gradientUnits="userSpaceOnUse">
<stop stop-color="#6246C7"/>
<stop offset="1" stop-color="#E037D6"/>
</linearGradient>
</defs>
</svg>
