<svg width="234" height="48" viewBox="0 0 234 48" fill="none" xmlns="http://www.w3.org/2000/svg">
<path d="M14.032 23.624C14.032 21.992 14.4 20.528 15.136 19.232C15.872 17.92 16.872 16.896 18.136 16.16C19.416 15.424 20.832 15.056 22.384 15.056C24.208 15.056 25.8 15.496 27.16 16.376C28.52 17.256 29.512 18.504 30.136 20.12H27.52C27.056 19.112 26.384 18.336 25.504 17.792C24.64 17.248 23.6 16.976 22.384 16.976C21.216 16.976 20.168 17.248 19.24 17.792C18.312 18.336 17.584 19.112 17.056 20.12C16.528 21.112 16.264 22.28 16.264 23.624C16.264 24.952 16.528 26.12 17.056 27.128C17.584 28.12 18.312 28.888 19.24 29.432C20.168 29.976 21.216 30.248 22.384 30.248C23.6 30.248 24.64 29.984 25.504 29.456C26.384 28.912 27.056 28.136 27.52 27.128H30.136C29.512 28.728 28.52 29.968 27.16 30.848C25.8 31.712 24.208 32.144 22.384 32.144C20.832 32.144 19.416 31.784 18.136 31.064C16.872 30.328 15.872 29.312 15.136 28.016C14.4 26.72 14.032 25.256 14.032 23.624ZM40.9711 32.168C39.4191 32.168 38.0031 31.808 36.7231 31.088C35.4431 30.352 34.4271 29.336 33.6751 28.04C32.9391 26.728 32.5711 25.256 32.5711 23.624C32.5711 21.992 32.9391 20.528 33.6751 19.232C34.4271 17.92 35.4431 16.904 36.7231 16.184C38.0031 15.448 39.4191 15.08 40.9711 15.08C42.5391 15.08 43.9631 15.448 45.2431 16.184C46.5231 16.904 47.5311 17.912 48.2671 19.208C49.0031 20.504 49.3711 21.976 49.3711 23.624C49.3711 25.272 49.0031 26.744 48.2671 28.04C47.5311 29.336 46.5231 30.352 45.2431 31.088C43.9631 31.808 42.5391 32.168 40.9711 32.168ZM40.9711 30.272C42.1391 30.272 43.1871 30 44.1151 29.456C45.0591 28.912 45.7951 28.136 46.3231 27.128C46.8671 26.12 47.1391 24.952 47.1391 23.624C47.1391 22.28 46.8671 21.112 46.3231 20.12C45.7951 19.112 45.0671 18.336 44.1391 17.792C43.2111 17.248 42.1551 16.976 40.9711 16.976C39.7871 16.976 38.7311 17.248 37.8031 17.792C36.8751 18.336 36.1391 19.112 35.5951 20.12C35.0671 21.112 34.8031 22.28 34.8031 23.624C34.8031 24.952 35.0671 26.12 35.5951 27.128C36.1391 28.136 36.8751 28.912 37.8031 29.456C38.7471 30 39.8031 30.272 40.9711 30.272ZM65.4062 32H63.2223L54.4383 18.68V32H52.2543V15.248H54.4383L63.2223 28.544V15.248H65.4062V32ZM82.2812 32H80.0973L71.3133 18.68V32H69.1293V15.248H71.3133L80.0973 28.544V15.248H82.2812V32ZM88.1883 17.048V22.64H94.2843V24.44H88.1883V30.2H95.0043V32H86.0043V15.248H95.0043V17.048H88.1883ZM97.4929 23.624C97.4929 21.992 97.8609 20.528 98.5969 19.232C99.3329 17.92 100.333 16.896 101.597 16.16C102.877 15.424 104.293 15.056 105.845 15.056C107.669 15.056 109.261 15.496 110.621 16.376C111.981 17.256 112.973 18.504 113.597 20.12H110.981C110.517 19.112 109.845 18.336 108.965 17.792C108.101 17.248 107.061 16.976 105.845 16.976C104.677 16.976 103.629 17.248 102.701 17.792C101.773 18.336 101.045 19.112 100.517 20.12C99.9889 21.112 99.7249 22.28 99.7249 23.624C99.7249 24.952 99.9889 26.12 100.517 27.128C101.045 28.12 101.773 28.888 102.701 29.432C103.629 29.976 104.677 30.248 105.845 30.248C107.061 30.248 108.101 29.984 108.965 29.456C109.845 28.912 110.517 28.136 110.981 27.128H113.597C112.973 28.728 111.981 29.968 110.621 30.848C109.261 31.712 107.669 32.144 105.845 32.144C104.293 32.144 102.877 31.784 101.597 31.064C100.333 30.328 99.3329 29.312 98.5969 28.016C97.8609 26.72 97.4929 25.256 97.4929 23.624ZM127.144 15.272V17.048H122.584V32H120.4V17.048H115.816V15.272H127.144ZM157.255 15.272L152.407 32H149.959L146.071 18.536L142.039 32L139.615 32.024L134.935 15.272H137.263L140.911 29.456L144.943 15.272H147.391L151.231 29.408L154.903 15.272H157.255ZM169.533 28.28H162.237L160.893 32H158.589L164.637 15.368H167.157L173.181 32H170.877L169.533 28.28ZM168.909 26.504L165.885 18.056L162.861 26.504H168.909ZM178.001 30.224H183.857V32H175.817V15.272H178.001V30.224ZM188.36 30.224H194.216V32H186.176V15.272H188.36V30.224ZM198.72 17.048V22.64H204.816V24.44H198.72V30.2H205.536V32H196.536V15.248H205.536V17.048H198.72ZM219.136 15.272V17.048H214.576V32H212.392V17.048H207.808V15.272H219.136Z" fill="black"/>
<rect x="1" y="1" width="232" height="46" rx="13" stroke="url(#paint0_linear_34_35)" stroke-width="2"/>
<defs>
<linearGradient id="paint0_linear_34_35" x1="0" y1="24" x2="234" y2="24" gradientUnits="userSpaceOnUse">
<stop stop-color="#6146C7"/>
<stop offset="1" stop-color="#E837D1"/>
</linearGradient>
</defs>
</svg>
