<svg width="18" height="18" viewBox="0 0 18 18" fill="none" xmlns="http://www.w3.org/2000/svg">
<g clip-path="url(#clip0_197_106)">
<path fill-rule="evenodd" clip-rule="evenodd" d="M8.26275 2.1015C6.96094 2.24069 5.72508 2.74542 4.69801 3.55734C3.67094 4.36927 2.89459 5.45525 2.45866 6.68978C2.02274 7.92431 1.94505 9.25699 2.23457 10.5338C2.52409 11.8106 3.169 12.9795 4.09477 13.9052C5.02053 14.831 6.18937 15.4759 7.46619 15.7654C8.74301 16.0549 10.0757 15.9773 11.3102 15.5413C12.5448 15.1054 13.6307 14.3291 14.4427 13.302C15.2546 12.2749 15.7593 11.0391 15.8985 9.73725C15.4233 10.3411 14.8255 10.8373 14.1446 11.1932C13.4636 11.5492 12.7149 11.7568 11.9479 11.8023C11.1809 11.8479 10.4129 11.7303 9.69464 11.4575C8.97635 11.1846 8.32404 10.7626 7.78072 10.2193C7.2374 9.67596 6.8154 9.02365 6.54253 8.30536C6.26967 7.58707 6.15213 6.8191 6.19768 6.05208C6.24322 5.28505 6.45081 4.53639 6.80676 3.85544C7.16272 3.17449 7.65895 2.57671 8.26275 2.1015ZM0.9375 9C0.9375 4.54725 4.54725 0.9375 9 0.9375C9.53775 0.9375 9.80625 1.36575 9.85275 1.707C9.897 2.0355 9.7755 2.45325 9.39825 2.68125C8.83796 3.01939 8.36198 3.48062 8.00636 4.02998C7.65074 4.57934 7.42481 5.20244 7.34569 5.85206C7.26657 6.50168 7.33633 7.16078 7.54969 7.77945C7.76305 8.39811 8.11441 8.9601 8.57715 9.42285C9.0399 9.88559 9.60189 10.237 10.2206 10.4503C10.8392 10.6637 11.4983 10.7334 12.1479 10.6543C12.7976 10.5752 13.4207 10.3493 13.97 9.99364C14.5194 9.63802 14.9806 9.16204 15.3187 8.60175C15.5467 8.2245 15.9645 8.103 16.293 8.14725C16.6343 8.19375 17.0625 8.46225 17.0625 9C17.0625 13.4528 13.4528 17.0625 9 17.0625C4.54725 17.0625 0.9375 13.4528 0.9375 9Z" fill="#707188"/>
</g>
<defs>
<clipPath id="clip0_197_106">
<rect width="18" height="18" fill="white"/>
</clipPath>
</defs>
</svg>
