<svg width="18" height="18" viewBox="0 0 18 18" fill="none" xmlns="http://www.w3.org/2000/svg">
<path fill-rule="evenodd" clip-rule="evenodd" d="M0 2.53125C0 1.85992 0.266684 1.21609 0.741386 0.741386C1.21609 0.266684 1.85992 0 2.53125 0H15.4688C16.1401 0 16.7839 0.266684 17.2586 0.741386C17.7333 1.21609 18 1.85992 18 2.53125V12.0938C18 12.7651 17.7333 13.4089 17.2586 13.8836C16.7839 14.3583 16.1401 14.625 15.4688 14.625H11.9756C12.1953 15.3611 12.6254 16.0169 13.2131 16.5116C13.3453 16.6233 13.44 16.7729 13.4843 16.9401C13.5286 17.1074 13.5205 17.2842 13.4609 17.4467C13.4014 17.6091 13.2933 17.7493 13.1514 17.8483C13.0095 17.9473 12.8405 18.0003 12.6675 18H5.3325C5.15957 18 4.9908 17.9469 4.84906 17.8478C4.70731 17.7488 4.59943 17.6085 4.54001 17.4461C4.4806 17.2837 4.47252 17.107 4.51688 16.9398C4.56123 16.7727 4.65588 16.6232 4.788 16.5116C5.37529 16.0168 5.80505 15.361 6.02437 14.625H2.53125C1.85992 14.625 1.21609 14.3583 0.741386 13.8836C0.266684 13.4089 0 12.7651 0 12.0938V2.53125ZM1.6875 2.53125C1.6875 2.30747 1.77639 2.09286 1.93463 1.93463C2.09286 1.77639 2.30747 1.6875 2.53125 1.6875H15.4688C15.6925 1.6875 15.9071 1.77639 16.0654 1.93463C16.2236 2.09286 16.3125 2.30747 16.3125 2.53125V10.9688C16.3125 11.1925 16.2236 11.4071 16.0654 11.5654C15.9071 11.7236 15.6925 11.8125 15.4688 11.8125H2.53125C2.30747 11.8125 2.09286 11.7236 1.93463 11.5654C1.77639 11.4071 1.6875 11.1925 1.6875 10.9688V2.53125Z" fill="#7169E6"/>
</svg>
