<svg width="48" height="48" viewBox="0 0 48 48" fill="none" xmlns="http://www.w3.org/2000/svg">
<path d="M30.7856 36L31.1323 43.0312L24.0202 38.0888L16.8683 43.0359L17.2153 36H14.2116L13.6939 46.5H17.1338L24.0163 41.7394L30.8669 46.5H34.3069L33.7893 36H30.7856ZM38.945 14.5232L38.7394 10.0181L34.9411 7.58748L32.5099 3.78882L28.0048 3.58257L24.0004 1.50873L19.9961 3.58304L15.4909 3.78929L13.0598 7.58748L9.26154 10.0181L9.05585 14.5232L6.98145 18.5276L9.05585 22.5322L9.2621 27.0371L13.0598 29.4678L15.4906 33.2665L19.9957 33.4723L24.0004 35.5466L28.0048 33.4723L32.5099 33.2665L34.9407 29.4678L38.7393 27.0375L38.945 22.5325L41.0194 18.528L38.945 14.5232ZM35.9782 21.7372L35.8129 25.3479L32.7684 27.296L30.8203 30.3405L27.2095 30.5055L24.0004 32.168L20.791 30.5055L17.1802 30.3405L15.2321 27.296L12.1879 25.3479L12.023 21.7372L10.3598 18.5276L12.0227 15.3188L12.1879 11.7075L15.2321 9.75938L17.1802 6.71495L20.791 6.54995L24.0004 4.88738L27.2099 6.54985L30.8207 6.71485L32.7688 9.75929L35.8129 11.7075L35.9779 15.3183L37.6411 18.5276L35.9782 21.7372Z" fill="#7169E6"/>
</svg>
