<svg width="16" height="16" viewBox="0 0 16 16" fill="none" xmlns="http://www.w3.org/2000/svg">
<path fill-rule="evenodd" clip-rule="evenodd" d="M12.3468 5.11598C12.4486 5.03115 12.58 4.99024 12.712 5.00224C12.8441 5.01424 12.9659 5.07817 13.0508 5.17998L15.1338 7.67998C15.2149 7.78223 15.2529 7.91216 15.2395 8.042C15.2261 8.17185 15.1625 8.29131 15.0622 8.37487C14.9619 8.45844 14.8329 8.49947 14.7028 8.48922C14.5727 8.47896 14.4517 8.41822 14.3658 8.31998L12.2828 5.81998C12.198 5.71812 12.157 5.58675 12.169 5.45473C12.181 5.32272 12.245 5.20087 12.3468 5.11598Z" fill="black"/>
<path fill-rule="evenodd" clip-rule="evenodd" d="M12.3468 10.884C12.245 10.7991 12.181 10.6773 12.169 10.5453C12.157 10.4132 12.198 10.2819 12.2828 10.18L14.3658 7.68C14.4072 7.62778 14.4587 7.58436 14.5172 7.55232C14.5756 7.52028 14.6399 7.50025 14.7062 7.49342C14.7726 7.48658 14.8396 7.49308 14.9033 7.51253C14.9671 7.53198 15.0263 7.56399 15.0776 7.60667C15.1288 7.64935 15.1709 7.70185 15.2016 7.76107C15.2322 7.82028 15.2507 7.88503 15.2559 7.95149C15.2612 8.01796 15.2531 8.0848 15.2321 8.14809C15.2111 8.21137 15.1777 8.26982 15.1338 8.32L13.0508 10.82C12.9659 10.9218 12.8441 10.9857 12.712 10.9977C12.58 11.0097 12.4486 10.9688 12.3468 10.884Z" fill="black"/>
<path fill-rule="evenodd" clip-rule="evenodd" d="M14.5 8C14.5 8.13261 14.4473 8.25979 14.3536 8.35355C14.2598 8.44732 14.1326 8.5 14 8.5H6.5C6.36739 8.5 6.24021 8.44732 6.14645 8.35355C6.05268 8.25979 6 8.13261 6 8C6 7.86739 6.05268 7.74021 6.14645 7.64645C6.24021 7.55268 6.36739 7.5 6.5 7.5H14C14.1326 7.5 14.2598 7.55268 14.3536 7.64645C14.4473 7.74021 14.5 7.86739 14.5 8ZM0.5 1C0.5 0.867392 0.552679 0.740215 0.646447 0.646447C0.740215 0.552679 0.867392 0.5 1 0.5H10C10.1326 0.5 10.2598 0.552679 10.3536 0.646447C10.4473 0.740215 10.5 0.867392 10.5 1C10.5 1.13261 10.4473 1.25979 10.3536 1.35355C10.2598 1.44732 10.1326 1.5 10 1.5H1C0.867392 1.5 0.740215 1.44732 0.646447 1.35355C0.552679 1.25979 0.5 1.13261 0.5 1ZM0.5 15C0.5 14.8674 0.552679 14.7402 0.646447 14.6464C0.740215 14.5527 0.867392 14.5 1 14.5H10C10.1326 14.5 10.2598 14.5527 10.3536 14.6464C10.4473 14.7402 10.5 14.8674 10.5 15C10.5 15.1326 10.4473 15.2598 10.3536 15.3536C10.2598 15.4473 10.1326 15.5 10 15.5H1C0.867392 15.5 0.740215 15.4473 0.646447 15.3536C0.552679 15.2598 0.5 15.1326 0.5 15Z" fill="black"/>
<path fill-rule="evenodd" clip-rule="evenodd" d="M10 0.5C10.1326 0.5 10.2598 0.552679 10.3536 0.646447C10.4473 0.740215 10.5 0.867392 10.5 1V5C10.5 5.13261 10.4473 5.25979 10.3536 5.35355C10.2598 5.44732 10.1326 5.5 10 5.5C9.86739 5.5 9.74021 5.44732 9.64645 5.35355C9.55268 5.25979 9.5 5.13261 9.5 5V1C9.5 0.867392 9.55268 0.740215 9.64645 0.646447C9.74021 0.552679 9.86739 0.5 10 0.5ZM10 10.5C10.1326 10.5 10.2598 10.5527 10.3536 10.6464C10.4473 10.7402 10.5 10.8674 10.5 11V15C10.5 15.1326 10.4473 15.2598 10.3536 15.3536C10.2598 15.4473 10.1326 15.5 10 15.5C9.86739 15.5 9.74021 15.4473 9.64645 15.3536C9.55268 15.2598 9.5 15.1326 9.5 15V11C9.5 10.8674 9.55268 10.7402 9.64645 10.6464C9.74021 10.5527 9.86739 10.5 10 10.5ZM1 0.5C1.13261 0.5 1.25979 0.552679 1.35355 0.646447C1.44732 0.740215 1.5 0.867392 1.5 1V15C1.5 15.1326 1.44732 15.2598 1.35355 15.3536C1.25979 15.4473 1.13261 15.5 1 15.5C0.867392 15.5 0.740215 15.4473 0.646447 15.3536C0.552679 15.2598 0.5 15.1326 0.5 15V1C0.5 0.867392 0.552679 0.740215 0.646447 0.646447C0.740215 0.552679 0.867392 0.5 1 0.5Z" fill="black"/>
</svg>
