<svg width="12" height="18" viewBox="0 0 12 18" fill="none" xmlns="http://www.w3.org/2000/svg">
<path d="M11.86 11.92C11.86 12.6533 11.6667 13.3333 11.28 13.96C10.9067 14.5733 10.3467 15.08 9.6 15.48C8.86667 15.8667 7.99333 16.08 6.98 16.12V17.74H5.7V16.1C4.28667 15.98 3.14667 15.56 2.28 14.84C1.41333 14.1067 0.953333 13.1133 0.9 11.86H4.54C4.62 12.66 5.00667 13.1733 5.7 13.4V10.24C4.66 9.97333 3.82667 9.71333 3.2 9.46C2.58667 9.20667 2.04667 8.8 1.58 8.24C1.11333 7.68 0.88 6.91333 0.88 5.94C0.88 4.72667 1.32667 3.75333 2.22 3.02C3.12667 2.28667 4.28667 1.87333 5.7 1.78V0.159999H6.98V1.78C8.38 1.88667 9.48667 2.29333 10.3 3C11.1133 3.70667 11.5667 4.68667 11.66 5.94H8C7.92 5.22 7.58 4.75333 6.98 4.54V7.64C8.08667 7.94667 8.94 8.22 9.54 8.46C10.14 8.7 10.6733 9.1 11.14 9.66C11.62 10.2067 11.86 10.96 11.86 11.92ZM4.5 5.78C4.5 6.11333 4.6 6.39333 4.8 6.62C5.01333 6.84667 5.31333 7.04667 5.7 7.22V4.44C5.32667 4.50667 5.03333 4.65333 4.82 4.88C4.60667 5.09333 4.5 5.39333 4.5 5.78ZM6.98 13.46C7.38 13.3933 7.69333 13.2333 7.92 12.98C8.16 12.7267 8.28 12.4133 8.28 12.04C8.28 11.6933 8.16667 11.4133 7.94 11.2C7.72667 10.9733 7.40667 10.78 6.98 10.62V13.46Z" fill="#707188"/>
</svg>
