<svg width="24" height="24" viewBox="0 0 24 24" fill="none" xmlns="http://www.w3.org/2000/svg">
<path d="M21.945 2.76511C21.7295 2.58619 21.4695 2.46902 21.1927 2.42606C20.9159 2.38309 20.6326 2.41594 20.373 2.52111L2.45602 9.75411C2.16649 9.87309 1.92 10.0773 1.74926 10.3397C1.57852 10.602 1.49161 10.9101 1.50008 11.223C1.50854 11.5359 1.61197 11.8389 1.79664 12.0916C1.98131 12.3444 2.23848 12.535 2.53402 12.6381L6.40002 13.9801L8.49502 20.9061C8.49902 20.9201 8.51202 20.9291 8.51802 20.9421C8.53988 20.9972 8.57137 21.048 8.61102 21.0921C8.67197 21.1594 8.7501 21.2088 8.83702 21.2351C8.84702 21.2391 8.85402 21.2481 8.86402 21.2501H8.87002L8.87302 21.2511C8.95039 21.2677 9.03076 21.2635 9.10602 21.2391L9.13102 21.2341C9.20319 21.2086 9.26853 21.1669 9.32202 21.1121C9.32802 21.1051 9.33802 21.1041 9.34402 21.0981L12.357 17.7721L16.754 21.1771C17.021 21.3861 17.35 21.4991 17.689 21.4991C18.423 21.4991 19.056 20.9851 19.207 20.2681L22.469 4.25011C22.5247 3.97818 22.5053 3.69624 22.413 3.43447C22.3207 3.1727 22.1589 2.94098 21.945 2.76411M9.58802 15.2951L8.88102 18.7321L7.40602 13.8541L14.721 10.0441L9.72402 15.0421C9.65492 15.1113 9.60764 15.1993 9.58802 15.2951ZM18.227 20.0671C18.2082 20.1578 18.1665 20.2421 18.1057 20.312C18.0449 20.3819 17.9672 20.4349 17.88 20.4661C17.7949 20.4984 17.7028 20.5081 17.6128 20.4945C17.5228 20.4808 17.4378 20.4442 17.366 20.3881L12.603 16.6991C12.5035 16.6222 12.3786 16.5857 12.2533 16.5969C12.128 16.608 12.0115 16.6659 11.927 16.7591L9.83002 19.0701L10.536 15.6431L17.725 8.45311C17.8092 8.36864 17.8604 8.25687 17.8695 8.13795C17.8785 8.01903 17.8447 7.90081 17.7742 7.80461C17.7037 7.70842 17.6012 7.64058 17.4851 7.61335C17.3689 7.58612 17.2469 7.60128 17.141 7.65611L6.77802 13.0541L2.86102 11.6921C2.75748 11.6573 2.66723 11.5913 2.60261 11.5033C2.53799 11.4152 2.50216 11.3093 2.50002 11.2001C2.49474 11.0897 2.5241 10.9804 2.58398 10.8876C2.64387 10.7947 2.73129 10.7229 2.83402 10.6821L20.748 3.44911C20.8399 3.41057 20.9407 3.3982 21.0392 3.41338C21.1376 3.42856 21.23 3.47069 21.306 3.53511C21.3817 3.59588 21.4388 3.67659 21.471 3.76813C21.5031 3.85967 21.509 3.95839 21.488 4.05311L18.227 20.0671Z" fill="white"/>
</svg>
