<svg width="28" height="28" viewBox="0 0 28 28" fill="none" xmlns="http://www.w3.org/2000/svg">
<path d="M22.4817 6.21817C20.93 5.49484 19.25 4.96984 17.5 4.6665C17.4692 4.66694 17.4399 4.67952 17.4183 4.7015C17.2083 5.0865 16.9633 5.58817 16.8 5.97317C14.9438 5.69335 13.0562 5.69335 11.2 5.97317C11.0367 5.5765 10.7917 5.0865 10.57 4.7015C10.5583 4.67817 10.5233 4.6665 10.4883 4.6665C8.73833 4.96984 7.06999 5.49484 5.50666 6.21817C5.49499 6.21817 5.48333 6.22984 5.47166 6.2415C2.29833 10.9898 1.42333 15.6098 1.85499 20.1832C1.85499 20.2065 1.86666 20.2298 1.88999 20.2415C3.98999 21.7815 6.00833 22.7148 8.00333 23.3332C8.03833 23.3448 8.07333 23.3332 8.08499 23.3098C8.55166 22.6682 8.97166 21.9915 9.33333 21.2798C9.35666 21.2332 9.33333 21.1865 9.28666 21.1748C8.62166 20.9182 7.99166 20.6148 7.37333 20.2648C7.32666 20.2415 7.32666 20.1715 7.36166 20.1365C7.49 20.0432 7.61833 19.9382 7.74666 19.8448C7.76999 19.8215 7.80499 19.8215 7.82833 19.8332C11.8417 21.6648 16.17 21.6648 20.1367 19.8332C20.16 19.8215 20.195 19.8215 20.2183 19.8448C20.3467 19.9498 20.475 20.0432 20.6033 20.1482C20.65 20.1832 20.65 20.2532 20.5917 20.2765C19.985 20.6382 19.3433 20.9298 18.6783 21.1865C18.6317 21.1982 18.62 21.2565 18.6317 21.2915C19.005 22.0032 19.425 22.6798 19.88 23.3215C19.915 23.3332 19.95 23.3448 19.985 23.3332C21.9917 22.7148 24.01 21.7815 26.11 20.2415C26.1333 20.2298 26.145 20.2065 26.145 20.1832C26.6583 14.8982 25.2933 10.3132 22.5283 6.2415C22.5167 6.22984 22.505 6.21817 22.4817 6.21817ZM9.94 17.3948C8.73833 17.3948 7.73499 16.2865 7.73499 14.9215C7.73499 13.5565 8.715 12.4482 9.94 12.4482C11.1767 12.4482 12.1567 13.5682 12.145 14.9215C12.145 16.2865 11.165 17.3948 9.94 17.3948ZM18.0717 17.3948C16.87 17.3948 15.8667 16.2865 15.8667 14.9215C15.8667 13.5565 16.8467 12.4482 18.0717 12.4482C19.3083 12.4482 20.2883 13.5682 20.2767 14.9215C20.2767 16.2865 19.3083 17.3948 18.0717 17.3948Z" fill="white"/>
</svg>
