<svg width="24" height="24" viewBox="0 0 24 24" fill="none" xmlns="http://www.w3.org/2000/svg">
<g clip-path="url(#clip0_197_93)">
<path d="M5 20C4.45 20 3.97933 19.8043 3.588 19.413C3.19667 19.0217 3.00067 18.5507 3 18V16C3 15.7167 3.096 15.4793 3.288 15.288C3.48 15.0967 3.71733 15.0007 4 15C4.28267 14.9993 4.52033 15.0953 4.713 15.288C4.90567 15.4807 5.00133 15.718 5 16V18H17V16C17 15.7167 17.096 15.4793 17.288 15.288C17.48 15.0967 17.7173 15.0007 18 15C18.2827 14.9993 18.5203 15.0953 18.713 15.288C18.9057 15.4807 19.0013 15.718 19 16V18C19 18.55 18.8043 19.021 18.413 19.413C18.0217 19.805 17.5507 20.0007 17 20H5ZM10 7.85L8.125 9.725C7.925 9.925 7.68767 10.021 7.413 10.013C7.13833 10.005 6.90067 9.90067 6.7 9.7C6.51667 9.5 6.42067 9.26667 6.412 9C6.40333 8.73334 6.49933 8.5 6.7 8.3L10.3 4.7C10.4 4.6 10.5083 4.52934 10.625 4.488C10.7417 4.44667 10.8667 4.42567 11 4.425C11.1333 4.42434 11.2583 4.44534 11.375 4.488C11.4917 4.53067 11.6 4.60134 11.7 4.7L15.3 8.3C15.5 8.5 15.596 8.73334 15.588 9C15.58 9.26667 15.484 9.5 15.3 9.7C15.1 9.9 14.8627 10.0043 14.588 10.013C14.3133 10.0217 14.0757 9.92567 13.875 9.725L12 7.85V15C12 15.2833 11.904 15.521 11.712 15.713C11.52 15.905 11.2827 16.0007 11 16C10.7173 15.9993 10.48 15.9033 10.288 15.712C10.096 15.5207 10 15.2833 10 15V7.85Z" fill="#707188"/>
</g>
<defs>
<clipPath id="clip0_197_93">
<rect width="24" height="24" fill="white"/>
</clipPath>
</defs>
</svg>
