<svg width="141" height="24" viewBox="0 0 141 24" fill="none" xmlns="http://www.w3.org/2000/svg">
<path d="M18.144 0.535999V4.92H12.192V23H6.72V4.92H0.768V0.535999H18.144ZM26.2663 0.535999V13.976C26.2663 15.32 26.5969 16.3547 27.2583 17.08C27.9196 17.8053 28.8903 18.168 30.1703 18.168C31.4503 18.168 32.4316 17.8053 33.1143 17.08C33.7969 16.3547 34.1383 15.32 34.1383 13.976V0.535999H39.6103V13.944C39.6103 15.9493 39.1836 17.6453 38.3303 19.032C37.4769 20.4187 36.3249 21.464 34.8743 22.168C33.4449 22.872 31.8449 23.224 30.0743 23.224C28.3036 23.224 26.7143 22.8827 25.3063 22.2C23.9196 21.496 22.8209 20.4507 22.0103 19.064C21.1996 17.656 20.7943 15.9493 20.7943 13.944V0.535999H26.2663ZM60.5728 7.768C60.5728 9.06933 60.2741 10.264 59.6768 11.352C59.0794 12.4187 58.1621 13.2827 56.9248 13.944C55.6874 14.6053 54.1514 14.936 52.3168 14.936H48.9248V23H43.4528V0.535999H52.3168C54.1088 0.535999 55.6234 0.845332 56.8608 1.464C58.0981 2.08267 59.0261 2.936 59.6448 4.024C60.2634 5.112 60.5728 6.36 60.5728 7.768ZM51.9008 10.584C52.9461 10.584 53.7248 10.3387 54.2368 9.848C54.7488 9.35733 55.0048 8.664 55.0048 7.768C55.0048 6.872 54.7488 6.17867 54.2368 5.688C53.7248 5.19733 52.9461 4.952 51.9008 4.952H48.9248V10.584H51.9008ZM79.5815 0.535999V4.92H73.6295V23H68.1575V4.92H62.2055V0.535999H79.5815ZM96.3118 19.032H87.9278L86.5838 23H80.8558L88.9838 0.535999H95.3198L103.448 23H97.6558L96.3118 19.032ZM94.9038 14.808L92.1198 6.584L89.3678 14.808H94.9038ZM111.394 18.776H118.562V23H105.922V0.535999H111.394V18.776ZM134.196 23L126.644 13.08V23H121.172V0.535999H126.644V10.392L134.132 0.535999H140.564L131.86 11.544L140.884 23H134.196Z" fill="url(#paint0_linear_228_67)"/>
<defs>
<linearGradient id="paint0_linear_228_67" x1="0" y1="12" x2="142" y2="12" gradientUnits="userSpaceOnUse">
<stop stop-color="#6246C7"/>
<stop offset="1" stop-color="#E037D6"/>
</linearGradient>
</defs>
</svg>
