<svg width="122" height="33" viewBox="0 0 122 33" fill="none" xmlns="http://www.w3.org/2000/svg">
<path d="M9.112 24.224C7.46933 24.224 5.99733 23.9573 4.696 23.424C3.39467 22.8907 2.34933 22.1013 1.56 21.056C0.792 20.0107 0.386667 18.752 0.344 17.28H6.168C6.25333 18.112 6.54133 18.752 7.032 19.2C7.52267 19.6267 8.16267 19.84 8.952 19.84C9.76267 19.84 10.4027 19.6587 10.872 19.296C11.3413 18.912 11.576 18.3893 11.576 17.728C11.576 17.1733 11.384 16.7147 11 16.352C10.6373 15.9893 10.1787 15.6907 9.624 15.456C9.09067 15.2213 8.32267 14.9547 7.32 14.656C5.86933 14.208 4.68533 13.76 3.768 13.312C2.85067 12.864 2.06133 12.2027 1.4 11.328C0.738667 10.4533 0.408 9.312 0.408 7.904C0.408 5.81333 1.16533 4.18133 2.68 3.008C4.19467 1.81333 6.168 1.216 8.6 1.216C11.0747 1.216 13.0693 1.81333 14.584 3.008C16.0987 4.18133 16.9093 5.824 17.016 7.936H11.096C11.0533 7.21067 10.7867 6.64533 10.296 6.24C9.80533 5.81333 9.176 5.6 8.408 5.6C7.74667 5.6 7.21333 5.78133 6.808 6.144C6.40267 6.48533 6.2 6.98667 6.2 7.648C6.2 8.37333 6.54133 8.93867 7.224 9.344C7.90667 9.74933 8.97333 10.1867 10.424 10.656C11.8747 11.1467 13.048 11.616 13.944 12.064C14.8613 12.512 15.6507 13.1627 16.312 14.016C16.9733 14.8693 17.304 15.968 17.304 17.312C17.304 18.592 16.9733 19.7547 16.312 20.8C15.672 21.8453 14.7333 22.6773 13.496 23.296C12.2587 23.9147 10.7973 24.224 9.112 24.224ZM30.6235 19.36V24H27.8395C25.8555 24 24.3088 23.52 23.1995 22.56C22.0902 21.5787 21.5355 19.9893 21.5355 17.792V10.688H19.3595V6.144H21.5355V1.792H27.0075V6.144H30.5915V10.688H27.0075V17.856C27.0075 18.3893 27.1355 18.7733 27.3915 19.008C27.6475 19.2427 28.0742 19.36 28.6715 19.36H30.6235ZM32.5835 15.04C32.5835 13.2053 32.9248 11.5947 33.6075 10.208C34.3115 8.82133 35.2608 7.75467 36.4555 7.008C37.6502 6.26133 38.9835 5.888 40.4555 5.888C41.7142 5.888 42.8128 6.144 43.7515 6.656C44.7115 7.168 45.4475 7.84 45.9595 8.672V6.144H51.4315V24H45.9595V21.472C45.4262 22.304 44.6795 22.976 43.7195 23.488C42.7808 24 41.6822 24.256 40.4235 24.256C38.9728 24.256 37.6502 23.8827 36.4555 23.136C35.2608 22.368 34.3115 21.2907 33.6075 19.904C32.9248 18.496 32.5835 16.8747 32.5835 15.04ZM45.9595 15.072C45.9595 13.7067 45.5755 12.6293 44.8075 11.84C44.0608 11.0507 43.1435 10.656 42.0555 10.656C40.9675 10.656 40.0395 11.0507 39.2715 11.84C38.5248 12.608 38.1515 13.6747 38.1515 15.04C38.1515 16.4053 38.5248 17.4933 39.2715 18.304C40.0395 19.0933 40.9675 19.488 42.0555 19.488C43.1435 19.488 44.0608 19.0933 44.8075 18.304C45.5755 17.5147 45.9595 16.4373 45.9595 15.072ZM62.1743 5.888C63.4329 5.888 64.5316 6.144 65.4703 6.656C66.4303 7.168 67.1663 7.84 67.6783 8.672V6.144H73.1503V23.968C73.1503 25.6107 72.8196 27.0933 72.1583 28.416C71.5183 29.76 70.5263 30.8267 69.1823 31.616C67.8596 32.4053 66.2063 32.8 64.2223 32.8C61.5769 32.8 59.4329 32.1707 57.7903 30.912C56.1476 29.6747 55.2089 27.9893 54.9743 25.856H60.3823C60.5529 26.5387 60.9583 27.072 61.5983 27.456C62.2383 27.8613 63.0276 28.064 63.9663 28.064C65.0969 28.064 65.9929 27.7333 66.6543 27.072C67.3369 26.432 67.6783 25.3973 67.6783 23.968V21.44C67.1449 22.272 66.4089 22.9547 65.4703 23.488C64.5316 24 63.4329 24.256 62.1743 24.256C60.7023 24.256 59.3689 23.8827 58.1743 23.136C56.9796 22.368 56.0303 21.2907 55.3263 19.904C54.6436 18.496 54.3023 16.8747 54.3023 15.04C54.3023 13.2053 54.6436 11.5947 55.3263 10.208C56.0303 8.82133 56.9796 7.75467 58.1743 7.008C59.3689 6.26133 60.7023 5.888 62.1743 5.888ZM67.6783 15.072C67.6783 13.7067 67.2943 12.6293 66.5263 11.84C65.7796 11.0507 64.8623 10.656 63.7743 10.656C62.6863 10.656 61.7583 11.0507 60.9903 11.84C60.2436 12.608 59.8703 13.6747 59.8703 15.04C59.8703 16.4053 60.2436 17.4933 60.9903 18.304C61.7583 19.0933 62.6863 19.488 63.7743 19.488C64.8623 19.488 65.7796 19.0933 66.5263 18.304C67.2943 17.5147 67.6783 16.4373 67.6783 15.072ZM93.941 14.784C93.941 15.296 93.909 15.8293 93.845 16.384H81.461C81.5463 17.4933 81.8983 18.3467 82.517 18.944C83.157 19.52 83.9357 19.808 84.853 19.808C86.2183 19.808 87.1677 19.232 87.701 18.08H93.525C93.2263 19.2533 92.6823 20.3093 91.893 21.248C91.125 22.1867 90.1543 22.9227 88.981 23.456C87.8077 23.9893 86.4957 24.256 85.045 24.256C83.2957 24.256 81.7383 23.8827 80.373 23.136C79.0077 22.3893 77.941 21.3227 77.173 19.936C76.405 18.5493 76.021 16.928 76.021 15.072C76.021 13.216 76.3943 11.5947 77.141 10.208C77.909 8.82133 78.9757 7.75467 80.341 7.008C81.7063 6.26133 83.2743 5.888 85.045 5.888C86.773 5.888 88.309 6.25067 89.653 6.976C90.997 7.70133 92.0423 8.736 92.789 10.08C93.557 11.424 93.941 12.992 93.941 14.784ZM88.341 13.344C88.341 12.4053 88.021 11.6587 87.381 11.104C86.741 10.5493 85.941 10.272 84.981 10.272C84.0637 10.272 83.285 10.5387 82.645 11.072C82.0263 11.6053 81.6423 12.3627 81.493 13.344H88.341ZM102.489 5.728V0.639999H111.353V24H105.657V5.728H102.489ZM118.2 24.256C117.24 24.256 116.451 23.9787 115.832 23.424C115.235 22.848 114.936 22.144 114.936 21.312C114.936 20.4587 115.235 19.744 115.832 19.168C116.451 18.592 117.24 18.304 118.2 18.304C119.139 18.304 119.907 18.592 120.504 19.168C121.123 19.744 121.432 20.4587 121.432 21.312C121.432 22.144 121.123 22.848 120.504 23.424C119.907 23.9787 119.139 24.256 118.2 24.256ZM118.2 11.232C117.24 11.232 116.451 10.9547 115.832 10.4C115.235 9.824 114.936 9.12 114.936 8.288C114.936 7.43467 115.235 6.72 115.832 6.144C116.451 5.568 117.24 5.28 118.2 5.28C119.139 5.28 119.907 5.568 120.504 6.144C121.123 6.72 121.432 7.43467 121.432 8.288C121.432 9.12 121.123 9.824 120.504 10.4C119.907 10.9547 119.139 11.232 118.2 11.232Z" fill="url(#paint0_linear_141_266)"/>
<defs>
<linearGradient id="paint0_linear_141_266" x1="-1" y1="13" x2="123" y2="13" gradientUnits="userSpaceOnUse">
<stop stop-color="#6246C7"/>
<stop offset="1" stop-color="#E037D6"/>
</linearGradient>
</defs>
</svg>
