<svg width="50" height="40" viewBox="0 0 50 40" fill="none" xmlns="http://www.w3.org/2000/svg">
<path d="M50 4.79293C48.1597 5.59681 46.1759 6.12507 44.1205 6.37772C46.2237 5.16042 47.849 3.23111 48.6138 0.911347C46.63 2.05974 44.4312 2.86362 42.1128 3.32298C40.2247 1.34774 37.5717 0.199341 34.5602 0.199341C28.9436 0.199341 24.3547 4.60919 24.3547 10.0526C24.3547 10.8335 24.4503 11.5914 24.6176 12.3035C16.109 11.89 8.53251 7.96251 3.48948 2.01381C2.60516 3.46079 2.10325 5.16042 2.10325 6.95192C2.10325 10.3741 3.89579 13.4059 6.66826 15.1285C4.97132 15.1285 3.39388 14.6692 2.00765 13.9801V14.049C2.00765 18.8263 5.54493 22.8228 10.2294 23.7185C8.72571 24.1157 7.14636 24.1708 5.61664 23.8793C6.26579 25.8373 7.53713 27.5505 9.25195 28.7782C10.9668 30.0059 13.0388 30.6863 15.1769 30.7238C11.5527 33.4811 7.06025 34.9714 2.43786 34.9498C1.62524 34.9498 0.81262 34.9039 0 34.812C4.54111 37.6141 9.94264 39.2449 15.7266 39.2449C34.5602 39.2449 44.9092 24.2238 44.9092 11.201C44.9092 10.7646 44.9092 10.3512 44.8853 9.91478C46.8929 8.53671 48.6138 6.79114 50 4.79293Z" fill="black"/>
</svg>
