<svg width="24" height="24" viewBox="0 0 24 24" fill="none" xmlns="http://www.w3.org/2000/svg">
<path d="M12 19.2L3 10.32L6.433 4.79999H17.567L21 10.32L12 19.2ZM12.9 11.1V10.002C14.52 10.082 16.032 10.398 16.5 10.807C15.956 11.284 14.007 11.631 12 11.631C9.993 11.631 8.044 11.284 7.5 10.807C7.963 10.397 9.48 10.087 11.1 9.99699V11.1H12.9ZM7.5 10.803V11.464C7.963 11.874 9.475 12.184 11.1 12.274V14.7H12.9V12.27C14.52 12.189 16.036 11.874 16.5 11.464V10.146C16.036 9.73599 14.52 9.42099 12.9 9.33599V8.39999H15.6V7.04999H8.4V8.39999H11.1V9.33599C9.475 9.42099 7.963 9.73599 7.5 10.146V10.803Z" fill="#009393"/>
</svg>
