<svg width="24" height="24" viewBox="0 0 24 24" fill="none" xmlns="http://www.w3.org/2000/svg">
<path d="M16.2 13.2C16.0408 13.2 15.8882 13.2632 15.7757 13.3757C15.6632 13.4882 15.6 13.6408 15.6 13.8C15.6 13.9591 15.6632 14.1117 15.7757 14.2242C15.8882 14.3368 16.0408 14.4 16.2 14.4H17.4C17.5591 14.4 17.7117 14.3368 17.8242 14.2242C17.9368 14.1117 18 13.9591 18 13.8C18 13.6408 17.9368 13.4882 17.8242 13.3757C17.7117 13.2632 17.5591 13.2 17.4 13.2H16.2ZM3.59998 5.39998C3.59998 4.92259 3.78962 4.46475 4.12718 4.12718C4.46475 3.78962 4.92259 3.59998 5.39998 3.59998H16.8C17.4365 3.59998 18.0469 3.85283 18.497 4.30292C18.9471 4.75301 19.2 5.36346 19.2 5.99998V6.32158C19.5648 6.53221 19.8678 6.83518 20.0784 7.20001C20.2891 7.56484 20.4 7.9787 20.4 8.39998V18C20.4 18.6365 20.1471 19.2469 19.697 19.697C19.2469 20.1471 18.6365 20.4 18 20.4H6.59998C5.80433 20.4 5.04126 20.0839 4.47866 19.5213C3.91605 18.9587 3.59998 18.1956 3.59998 17.4V5.39998ZM16.8 4.79998H5.39998C5.24085 4.79998 5.08823 4.86319 4.97571 4.97571C4.86319 5.08823 4.79998 5.24085 4.79998 5.39998C4.79998 5.55911 4.86319 5.71172 4.97571 5.82424C5.08823 5.93676 5.24085 5.99998 5.39998 5.99998H18C18 5.68172 17.8735 5.37649 17.6485 5.15145C17.4235 4.9264 17.1182 4.79998 16.8 4.79998ZM5.39998 7.19998C5.18878 7.19918 4.98878 7.16518 4.79998 7.09798V17.4C4.79998 17.8774 4.98962 18.3352 5.32718 18.6728C5.66475 19.0103 6.12259 19.2 6.59998 19.2H18C18.3182 19.2 18.6235 19.0735 18.8485 18.8485C19.0735 18.6235 19.2 18.3182 19.2 18V8.39998C19.2 8.08172 19.0735 7.77649 18.8485 7.55145C18.6235 7.3264 18.3182 7.19998 18 7.19998H5.39998Z" fill="white"/>
</svg>
